<svg xmlns="http://www.w3.org/2000/svg" viewBox="0 0 1200 900">
  <defs>
    <linearGradient id="bg" x1="0" x2="1" y1="0" y2="1">
      <stop offset="0" stop-color="#f7eadf"/>
      <stop offset="1" stop-color="#d7e7f4"/>
    </linearGradient>
    <radialGradient id="light" cx="35%" cy="20%" r="50%">
      <stop offset="0" stop-color="#ffffff" stop-opacity="0.95"/>
      <stop offset="1" stop-color="#ffffff" stop-opacity="0"/>
    </radialGradient>
    <filter id="blur" x="-20%" y="-20%" width="140%" height="140%">
      <feGaussianBlur stdDeviation="16"/>
    </filter>
    <filter id="shadow" x="-20%" y="-20%" width="160%" height="160%">
      <feDropShadow dx="0" dy="18" stdDeviation="16" flood-color="#28445d" flood-opacity="0.22"/>
    </filter>
  </defs>
  <rect width="1200" height="900" fill="url(#bg)"/>
  <rect width="1200" height="900" fill="url(#light)"/>
  <ellipse cx="312" cy="780" rx="368" ry="74" fill="#b8c9d6" opacity="0.36" filter="url(#blur)"/>
  <g filter="url(#shadow)">
    <rect x="146" y="200" width="908" height="496" rx="34" fill="#f4eee6"/>
    <rect x="184" y="238" width="834" height="420" rx="26" fill="#fefcf9"/>
    <rect x="208" y="258" width="230" height="124" rx="24" fill="#f8d9cb"/>
    <rect x="462" y="258" width="230" height="124" rx="24" fill="#f9eb95"/>
    <rect x="716" y="258" width="230" height="124" rx="24" fill="#bfe3de"/>
    <rect x="208" y="404" width="230" height="124" rx="24" fill="#bfd7f0"/>
    <rect x="462" y="404" width="230" height="124" rx="24" fill="#d8c8ef"/>
    <rect x="716" y="404" width="230" height="124" rx="24" fill="#f7cad8"/>
  </g>
  <g filter="url(#shadow)">
    <circle cx="938" cy="670" r="106" fill="#f8efe8"/>
    <circle cx="938" cy="670" r="78" fill="#e5ddd5"/>
    <circle cx="938" cy="670" r="58" fill="#1269b0"/>
    <circle cx="938" cy="670" r="39" fill="#ffd166"/>
    <circle cx="938" cy="670" r="22" fill="#d62828"/>
  </g>
  <g filter="url(#shadow)">
    <rect x="194" y="608" width="196" height="44" rx="18" fill="#ffffff"/>
    <rect x="414" y="608" width="196" height="44" rx="18" fill="#ffffff"/>
    <rect x="634" y="608" width="196" height="44" rx="18" fill="#ffffff"/>
  </g>
  <g filter="url(#shadow)">
    <path d="M980 228c46 0 82 42 82 96s-30 154-56 222c-4 12-22 12-26 0-26-69-56-160-56-222s36-96 56-96z" fill="#d62828"/>
    <path d="M980 228c33 0 58 24 58 57 0 9-1 18-4 28-6-40-31-68-67-82 4-2 8-3 13-3z" fill="#ef5350" opacity="0.55"/>
    <rect x="972" y="430" width="16" height="170" rx="8" fill="#b89057"/>
    <rect x="942" y="592" width="78" height="16" rx="8" fill="#7d5b36"/>
  </g>
</svg>
