<svg xmlns="http://www.w3.org/2000/svg" viewBox="0 0 1200 900">
  <defs>
    <linearGradient id="wood" x1="0" x2="1" y1="0" y2="1">
      <stop offset="0" stop-color="#6e4d32"/>
      <stop offset="1" stop-color="#3f2c1f"/>
    </linearGradient>
    <linearGradient id="metal" x1="0" x2="1">
      <stop offset="0" stop-color="#dfe5eb"/>
      <stop offset="1" stop-color="#8d9aa5"/>
    </linearGradient>
    <linearGradient id="handle" x1="0" x2="1">
      <stop offset="0" stop-color="#f0c14b"/>
      <stop offset="1" stop-color="#b7791f"/>
    </linearGradient>
    <filter id="shadow" x="-20%" y="-20%" width="160%" height="160%">
      <feDropShadow dx="0" dy="20" stdDeviation="18" flood-color="#23160d" flood-opacity="0.34"/>
    </filter>
  </defs>
  <rect width="1200" height="900" fill="#2b221d"/>
  <rect x="84" y="70" width="1032" height="760" rx="30" fill="url(#wood)" filter="url(#shadow)"/>
  <g opacity="0.22">
    <path d="M140 134h920" stroke="#f3d9b8" stroke-width="8"/>
    <path d="M140 244h920" stroke="#f3d9b8" stroke-width="8"/>
    <path d="M140 354h920" stroke="#f3d9b8" stroke-width="8"/>
    <path d="M140 464h920" stroke="#f3d9b8" stroke-width="8"/>
    <path d="M140 574h920" stroke="#f3d9b8" stroke-width="8"/>
    <path d="M140 684h920" stroke="#f3d9b8" stroke-width="8"/>
  </g>
  <g filter="url(#shadow)">
    <rect x="228" y="194" width="86" height="292" rx="20" transform="rotate(-22 228 194)" fill="url(#handle)"/>
    <rect x="306" y="146" width="236" height="84" rx="26" transform="rotate(-22 306 146)" fill="#5d6873"/>
    <rect x="334" y="164" width="178" height="48" rx="22" transform="rotate(-22 334 164)" fill="url(#metal)"/>
  </g>
  <g filter="url(#shadow)">
    <rect x="612" y="222" width="280" height="40" rx="18" transform="rotate(26 612 222)" fill="#c4904c"/>
    <rect x="694" y="150" width="152" height="142" rx="24" transform="rotate(26 694 150)" fill="url(#metal)"/>
    <rect x="726" y="184" width="66" height="74" rx="18" transform="rotate(26 726 184)" fill="#f3f6f8"/>
  </g>
  <g filter="url(#shadow)">
    <rect x="320" y="542" width="340" height="30" rx="15" fill="#d5a566"/>
    <rect x="618" y="510" width="40" height="220" rx="18" fill="#d5a566"/>
    <path d="M586 504h110c18 0 32 14 32 32v8H554v-8c0-18 14-32 32-32z" fill="url(#metal)"/>
  </g>
  <g filter="url(#shadow)">
    <rect x="774" y="560" width="144" height="92" rx="26" fill="#101214"/>
    <rect x="802" y="586" width="88" height="40" rx="16" fill="#3f474f"/>
  </g>
  <rect x="130" y="734" width="940" height="44" rx="22" fill="#201610" opacity="0.42"/>
</svg>
