<svg xmlns="http://www.w3.org/2000/svg" viewBox="0 0 1408 768" role="img" aria-labelledby="title desc">
  <title id="title">Farben</title>
  <desc id="desc">Farbkreise und Pinselstriche.</desc>
  <rect width="1408" height="768" fill="#fff7ed"/>
  <path d="M80 164 C260 70 360 206 520 126 C690 42 830 182 1020 106 C1168 48 1300 96 1408 46 L1408 0 L0 0 L0 220 Z" fill="#ffe1a8"/>
  <path d="M0 604 C230 530 370 690 590 604 C780 532 955 650 1148 578 C1260 536 1340 550 1408 508 L1408 768 L0 768 Z" fill="#d8f3dc"/>
  <circle cx="320" cy="342" r="118" fill="#e63946"/>
  <circle cx="514" cy="276" r="118" fill="#2a9d8f"/>
  <circle cx="708" cy="342" r="118" fill="#f4a261"/>
  <circle cx="902" cy="276" r="118" fill="#457b9d"/>
  <circle cx="1096" cy="342" r="118" fill="#ffbe0b"/>
  <path d="M222 540 C380 494 520 594 678 530 C850 460 980 584 1198 512" fill="none" stroke="#6d597a" stroke-width="36" stroke-linecap="round"/>
  <path d="M252 560 C410 514 540 612 708 552 C856 500 998 604 1174 546" fill="none" stroke="#ffffff" stroke-width="10" stroke-linecap="round" opacity=".78"/>
  <text x="704" y="690" text-anchor="middle" font-family="Arial, sans-serif" font-size="72" font-weight="700" fill="#1f2937">Farben</text>
</svg>
