<svg xmlns="http://www.w3.org/2000/svg" viewBox="0 0 1408 768" role="img" aria-labelledby="title desc">
  <title id="title">Ballonspiel</title>
  <desc id="desc">Bunte Ballons vor hellem Himmel.</desc>
  <rect width="1408" height="768" fill="#eaf6ff"/>
  <path d="M0 560 C190 500 330 610 520 550 C720 486 890 570 1080 520 C1210 486 1310 500 1408 462 L1408 768 L0 768 Z" fill="#bfe7d2"/>
  <path d="M0 610 C220 548 420 646 630 596 C800 556 990 622 1160 580 C1280 552 1360 568 1408 536 L1408 768 L0 768 Z" fill="#8ed2b0"/>
  <g fill="none" stroke="#2e4057" stroke-width="6" stroke-linecap="round">
    <path d="M370 392 C354 450 388 492 362 552"/>
    <path d="M704 338 C682 420 730 468 700 548"/>
    <path d="M1012 420 C990 472 1032 520 1000 594"/>
  </g>
  <g>
    <ellipse cx="370" cy="270" rx="98" ry="126" fill="#ef476f"/>
    <path d="M340 388 L400 388 L370 424 Z" fill="#c73659"/>
    <ellipse cx="338" cy="230" rx="24" ry="42" fill="#ff8aa5" opacity=".72"/>
  </g>
  <g>
    <ellipse cx="704" cy="218" rx="112" ry="142" fill="#4d96ff"/>
    <path d="M668 350 L740 350 L704 392 Z" fill="#3474c7"/>
    <ellipse cx="668" cy="170" rx="28" ry="48" fill="#a7d4ff" opacity=".75"/>
  </g>
  <g>
    <ellipse cx="1012" cy="300" rx="94" ry="120" fill="#ffd166"/>
    <path d="M984 414 L1040 414 L1012 450 Z" fill="#dcae45"/>
    <ellipse cx="982" cy="262" rx="22" ry="38" fill="#fff1ad" opacity=".76"/>
  </g>
  <text x="704" y="690" text-anchor="middle" font-family="Arial, sans-serif" font-size="72" font-weight="700" fill="#1f2937">Ballonspiel</text>
</svg>
