<svg xmlns="http://www.w3.org/2000/svg" viewBox="0 0 1200 900">
  <defs>
    <linearGradient id="sky" x1="0" x2="0" y1="0" y2="1">
      <stop offset="0" stop-color="#dff2ff"/>
      <stop offset="1" stop-color="#f9fdff"/>
    </linearGradient>
    <filter id="shadow" x="-20%" y="-20%" width="160%" height="160%">
      <feDropShadow dx="0" dy="18" stdDeviation="14" flood-color="#3b5f7d" flood-opacity="0.2"/>
    </filter>
  </defs>
  <rect width="1200" height="900" fill="url(#sky)"/>
  <circle cx="194" cy="148" r="54" fill="#fff9cf"/>
  <g fill="#ffffff" opacity="0.92">
    <ellipse cx="246" cy="182" rx="84" ry="30"/>
    <ellipse cx="212" cy="172" rx="36" ry="24"/>
    <ellipse cx="282" cy="170" rx="42" ry="28"/>
    <ellipse cx="896" cy="188" rx="94" ry="34"/>
    <ellipse cx="856" cy="178" rx="38" ry="24"/>
    <ellipse cx="942" cy="176" rx="44" ry="28"/>
  </g>
  <g filter="url(#shadow)">
    <g transform="translate(206 206)">
      <path d="M120 0c58 0 104 52 104 118S186 302 152 384c-6 14-28 14-34 0-34-82-72-184-72-266S62 0 120 0z" fill="#d62828"/>
      <rect x="114" y="390" width="12" height="144" rx="6" fill="#8d8d8d"/>
    </g>
    <g transform="translate(436 132)">
      <path d="M120 0c58 0 104 52 104 118S186 302 152 384c-6 14-28 14-34 0-34-82-72-184-72-266S62 0 120 0z" fill="#1269b0"/>
      <rect x="114" y="390" width="12" height="144" rx="6" fill="#8d8d8d"/>
    </g>
    <g transform="translate(678 208)">
      <path d="M120 0c58 0 104 52 104 118S186 302 152 384c-6 14-28 14-34 0-34-82-72-184-72-266S62 0 120 0z" fill="#ffd166"/>
      <rect x="114" y="390" width="12" height="144" rx="6" fill="#8d8d8d"/>
    </g>
    <g transform="translate(896 144)">
      <path d="M90 0c42 0 76 38 76 86S138 222 114 282c-4 10-20 10-24 0-24-60-52-136-52-196S48 0 90 0z" fill="#2a9d8f"/>
      <rect x="86" y="286" width="10" height="126" rx="5" fill="#8d8d8d"/>
    </g>
  </g>
  <g transform="translate(662 594)" filter="url(#shadow)">
    <circle cx="0" cy="0" r="10" fill="#ffd166"/>
    <rect x="-2" y="-84" width="4" height="168" fill="#ffd166"/>
    <rect x="-84" y="-2" width="168" height="4" fill="#ffd166"/>
    <rect x="-58" y="-58" width="116" height="4" transform="rotate(45)" fill="#d62828"/>
    <rect x="-58" y="-58" width="116" height="4" transform="rotate(-45)" fill="#1269b0"/>
  </g>
  <path d="M0 790c132-28 206-28 330 0s200 28 326 0 212-28 544 0v110H0z" fill="#98d873"/>
</svg>
